<svg xmlns="http://www.w3.org/2000/svg" width="760" height="380" viewBox="0 0 760 380" font-family="sans-serif" font-size="12">
<rect width="760" height="380" fill="white"/>
<text x="380.0" y="22" text-anchor="middle" font-size="14" font-weight="bold">Calibration cycle time (the fit alone)</text>
<line x1="72" y1="328.0" x2="580" y2="328.0" stroke="#e5e5e5"/>
<text x="66" y="332.0" text-anchor="end">0</text>
<line x1="72" y1="232.0" x2="580" y2="232.0" stroke="#e5e5e5"/>
<text x="66" y="236.0" text-anchor="end">500</text>
<line x1="72" y1="136.0" x2="580" y2="136.0" stroke="#e5e5e5"/>
<text x="66" y="140.0" text-anchor="end">1000</text>
<line x1="72" y1="40.0" x2="580" y2="40.0" stroke="#e5e5e5"/>
<text x="66" y="44.0" text-anchor="end">1500</text>
<line x1="72.0" y1="40" x2="72.0" y2="328" stroke="#f0f0f0"/>
<text x="72.0" y="344" text-anchor="middle">0</text>
<line x1="241.3" y1="40" x2="241.3" y2="328" stroke="#f0f0f0"/>
<text x="241.3" y="344" text-anchor="middle">20</text>
<line x1="410.7" y1="40" x2="410.7" y2="328" stroke="#f0f0f0"/>
<text x="410.7" y="344" text-anchor="middle">40</text>
<line x1="580.0" y1="40" x2="580.0" y2="328" stroke="#f0f0f0"/>
<text x="580.0" y="344" text-anchor="middle">60</text>
<rect x="72" y="40" width="508" height="288" fill="none" stroke="#333"/>
<text x="326.0" y="368" text-anchor="middle">seconds since the session's first measurement</text>
<text x="16" y="184.0" text-anchor="middle" transform="rotate(-90 16 184.0)">milliseconds</text>
<polyline points="72.0,327.6 81.2,311.7 90.0,315.8 99.0,304.5 107.2,310.4 119.3,233.1 132.9,126.4 134.9,281.2 142.3,304.8 150.2,319.3 159.0,314.5 168.4,293.1 177.3,284.1 184.5,312.1 193.5,301.5 202.1,298.6 215.7,182.7 218.3,314.7 233.1,173.2 243.7,125.9 244.7,304.9 255.7,237.6 263.9,245.3 272.7,238.7 283.1,195.8 286.9,300.6 296.4,278.3 304.4,288.5 314.5,252.8 321.1,296.3 329.9,289.3 337.6,308.3 347.2,282.7 356.6,260.5 362.6,317.6 371.9,302.0 381.5,275.5 389.6,283.7 397.5,298.2 406.1,298.0 414.1,310.8 424.0,292.6 431.6,311.8 440.0,313.3 449.0,301.6 458.6,277.6 468.2,253.1 474.4,304.0 483.3,294.7 492.8,276.7 506.1,169.6 509.1,296.0 517.6,297.5 527.2,273.3 534.1,308.5 542.1,321.2 550.8,315.4 559.6,307.8 568.7,295.1 576.5,312.2" fill="none" stroke="#1f77b4" stroke-width="1.5"/>
<circle cx="72.0" cy="327.6" r="2.5" fill="#1f77b4"/>
<circle cx="81.2" cy="311.7" r="2.5" fill="#1f77b4"/>
<circle cx="90.0" cy="315.8" r="2.5" fill="#1f77b4"/>
<circle cx="99.0" cy="304.5" r="2.5" fill="#1f77b4"/>
<circle cx="107.2" cy="310.4" r="2.5" fill="#1f77b4"/>
<circle cx="119.3" cy="233.1" r="2.5" fill="#1f77b4"/>
<circle cx="132.9" cy="126.4" r="2.5" fill="#1f77b4"/>
<circle cx="134.9" cy="281.2" r="2.5" fill="#1f77b4"/>
<circle cx="142.3" cy="304.8" r="2.5" fill="#1f77b4"/>
<circle cx="150.2" cy="319.3" r="2.5" fill="#1f77b4"/>
<circle cx="159.0" cy="314.5" r="2.5" fill="#1f77b4"/>
<circle cx="168.4" cy="293.1" r="2.5" fill="#1f77b4"/>
<circle cx="177.3" cy="284.1" r="2.5" fill="#1f77b4"/>
<circle cx="184.5" cy="312.1" r="2.5" fill="#1f77b4"/>
<circle cx="193.5" cy="301.5" r="2.5" fill="#1f77b4"/>
<circle cx="202.1" cy="298.6" r="2.5" fill="#1f77b4"/>
<circle cx="215.7" cy="182.7" r="2.5" fill="#1f77b4"/>
<circle cx="218.3" cy="314.7" r="2.5" fill="#1f77b4"/>
<circle cx="233.1" cy="173.2" r="2.5" fill="#1f77b4"/>
<circle cx="243.7" cy="125.9" r="2.5" fill="#1f77b4"/>
<circle cx="244.7" cy="304.9" r="2.5" fill="#1f77b4"/>
<circle cx="255.7" cy="237.6" r="2.5" fill="#1f77b4"/>
<circle cx="263.9" cy="245.3" r="2.5" fill="#1f77b4"/>
<circle cx="272.7" cy="238.7" r="2.5" fill="#1f77b4"/>
<circle cx="283.1" cy="195.8" r="2.5" fill="#1f77b4"/>
<circle cx="286.9" cy="300.6" r="2.5" fill="#1f77b4"/>
<circle cx="296.4" cy="278.3" r="2.5" fill="#1f77b4"/>
<circle cx="304.4" cy="288.5" r="2.5" fill="#1f77b4"/>
<circle cx="314.5" cy="252.8" r="2.5" fill="#1f77b4"/>
<circle cx="321.1" cy="296.3" r="2.5" fill="#1f77b4"/>
<circle cx="329.9" cy="289.3" r="2.5" fill="#1f77b4"/>
<circle cx="337.6" cy="308.3" r="2.5" fill="#1f77b4"/>
<circle cx="347.2" cy="282.7" r="2.5" fill="#1f77b4"/>
<circle cx="356.6" cy="260.5" r="2.5" fill="#1f77b4"/>
<circle cx="362.6" cy="317.6" r="2.5" fill="#1f77b4"/>
<circle cx="371.9" cy="302.0" r="2.5" fill="#1f77b4"/>
<circle cx="381.5" cy="275.5" r="2.5" fill="#1f77b4"/>
<circle cx="389.6" cy="283.7" r="2.5" fill="#1f77b4"/>
<circle cx="397.5" cy="298.2" r="2.5" fill="#1f77b4"/>
<circle cx="406.1" cy="298.0" r="2.5" fill="#1f77b4"/>
<circle cx="414.1" cy="310.8" r="2.5" fill="#1f77b4"/>
<circle cx="424.0" cy="292.6" r="2.5" fill="#1f77b4"/>
<circle cx="431.6" cy="311.8" r="2.5" fill="#1f77b4"/>
<circle cx="440.0" cy="313.3" r="2.5" fill="#1f77b4"/>
<circle cx="449.0" cy="301.6" r="2.5" fill="#1f77b4"/>
<circle cx="458.6" cy="277.6" r="2.5" fill="#1f77b4"/>
<circle cx="468.2" cy="253.1" r="2.5" fill="#1f77b4"/>
<circle cx="474.4" cy="304.0" r="2.5" fill="#1f77b4"/>
<circle cx="483.3" cy="294.7" r="2.5" fill="#1f77b4"/>
<circle cx="492.8" cy="276.7" r="2.5" fill="#1f77b4"/>
<circle cx="506.1" cy="169.6" r="2.5" fill="#1f77b4"/>
<circle cx="509.1" cy="296.0" r="2.5" fill="#1f77b4"/>
<circle cx="517.6" cy="297.5" r="2.5" fill="#1f77b4"/>
<circle cx="527.2" cy="273.3" r="2.5" fill="#1f77b4"/>
<circle cx="534.1" cy="308.5" r="2.5" fill="#1f77b4"/>
<circle cx="542.1" cy="321.2" r="2.5" fill="#1f77b4"/>
<circle cx="550.8" cy="315.4" r="2.5" fill="#1f77b4"/>
<circle cx="559.6" cy="307.8" r="2.5" fill="#1f77b4"/>
<circle cx="568.7" cy="295.1" r="2.5" fill="#1f77b4"/>
<circle cx="576.5" cy="312.2" r="2.5" fill="#1f77b4"/>
<line x1="594" y1="50" x2="612" y2="50" stroke="#1f77b4" stroke-width="2"/>
<text x="618" y="54">svi-scipy</text>
</svg>
